<?xml version="1.0" encoding="utf-8"?><!-- Uploaded to: SVG Repo, www.svgrepo.com, Generator: SVG Repo Mixer Tools -->
<svg width="32" height="32" viewBox="0 0 24 24" fill="none" xmlns="http://www.w3.org/2000/svg">
<path d="M18.44 21.88C20.3399 21.88 21.88 20.3399 21.88 18.44C21.88 16.5401 20.3399 15 18.44 15C16.5401 15 15 16.5401 15 18.44C15 20.3399 16.5401 21.88 18.44 21.88Z" stroke="#000000" strokeWidth="1.5" strokeLinecap="round" strokeLinejoin="round"/>
<path d="M23.0009 23L20.8809 20.88" stroke="#000000" strokeWidth="1.5" strokeLinecap="round" strokeLinejoin="round"/>
<path d="M21.6201 12.8401C21.8732 12.086 22.0015 11.2955 22 10.5C22 5.81 17.52 2 12 2C6.48 2 2 5.81 2 10.5C2.02247 11.6688 2.30308 12.8182 2.82172 13.8658C3.34035 14.9135 4.0842 15.8335 5 16.5601V19.91C4.99971 20.3202 5.11953 20.7214 5.34467 21.0642C5.5698 21.407 5.89043 21.6765 6.26691 21.8392C6.64338 22.0019 7.05924 22.0508 7.4632 21.9799C7.86715 21.9089 8.24151 21.7213 8.54004 21.4401L11.15 18.9801H12.02" stroke="#000000" strokeWidth="1.5" strokeLinecap="round" strokeLinejoin="round"/>
</svg>